<?xml version="1.0" encoding="UTF-8" standalone="no"?>
<!-- Created with Inkscape (http://www.inkscape.org/) -->

<svg
   width="420mm"
   height="297mm"
   viewBox="0 0 420 297"
   version="1.1"
   id="svg1"
   xml:space="preserve"
   sodipodi:docname="d12_Overall.svg"
   inkscape:version="1.3.2 (091e20e, 2023-11-25, custom)"
   inkscape:export-filename="d12_uv_color.png"
   inkscape:export-xdpi="96"
   inkscape:export-ydpi="96"
   xmlns:inkscape="http://www.inkscape.org/namespaces/inkscape"
   xmlns:sodipodi="http://sodipodi.sourceforge.net/DTD/sodipodi-0.dtd"
   xmlns="http://www.w3.org/2000/svg"
   xmlns:svg="http://www.w3.org/2000/svg"><sodipodi:namedview
     id="namedview1"
     pagecolor="#ffffff"
     bordercolor="#000000"
     borderopacity="0.25"
     inkscape:showpageshadow="2"
     inkscape:pageopacity="0.0"
     inkscape:pagecheckerboard="0"
     inkscape:deskcolor="#d1d1d1"
     inkscape:document-units="mm"
     inkscape:zoom="0.5"
     inkscape:cx="528"
     inkscape:cy="551"
     inkscape:window-width="1920"
     inkscape:window-height="1057"
     inkscape:window-x="1912"
     inkscape:window-y="-8"
     inkscape:window-maximized="1"
     inkscape:current-layer="g27" /><defs
     id="defs1" /><g
     inkscape:label="Fill_UV"
     inkscape:groupmode="layer"
     id="g2"
     style="display:none"><path
       style="fill:#000000;stroke:#000000;stroke-width:0.277813"
       d="m 148.91217,275.87847 c -0.19189,0.0652 -9.85007,3.20108 -21.46264,6.96853 -11.61256,3.76746 -21.19373,6.8972 -21.2915,6.95499 -0.13711,0.0811 -25.780437,-34.92023 -26.700427,-36.44415 -0.13182,-0.21835 4.59074,-6.95279 12.87378,-18.35819 7.19508,-9.90734 13.227007,-18.16281 13.404277,-18.34551 0.24878,-0.2564 5.23396,1.26618 21.85278,6.67431 l 21.53047,7.00649 0.0711,22.71245 c 0.0564,18.02901 -8.4e-4,22.73692 -0.27782,22.83108 z"
       id="path2" /><path
       style="fill:#000000;stroke:#000000;stroke-width:0.277813"
       d="m 149.02761,274.55641 -0.085,1.17155 -4.77674,1.53082 c -2.62719,0.84195 -12.21515,3.95873 -21.30657,6.92618 -9.09141,2.96744 -16.61921,5.34091 -16.72843,5.27437 -0.10923,-0.0665 -2.98093,-3.89804 -6.381557,-8.51444 -12.59097,-17.09246 -19.94585,-27.29537 -19.94836,-27.67298 -0.003,-0.50668 5.02539,-7.65529 15.65443,-22.25346 4.728237,-6.49387 8.976977,-12.33835 9.441647,-12.98773 0.46467,-0.64939 1.04707,-1.18071 1.29422,-1.18071 0.77984,0 13.26126,3.95448 36.02212,11.41287 3.69248,1.20997 6.75537,2.19992 6.80641,2.19988 0.11627,-8e-5 0.12381,42.49469 0.008,44.09365 z"
       id="path3" /><path
       style="fill:#000000;stroke:#000000;stroke-width:0.277813"
       d="m 81.178843,275.87847 c -0.19189,0.0652 -9.85008,3.20108 -21.462641,6.96853 -11.61256,3.76746 -21.19374,6.8972 -21.2915,6.95499 -0.13711,0.0811 -25.78044,-34.92023 -26.70043,-36.44415 -0.13182,-0.21835 4.59074,-6.95279 12.87378,-18.35819 7.19508,-9.90734 13.22701,-18.16281 13.40428,-18.34551 0.24878,-0.2564 5.23396,1.26618 21.85278,6.67431 l 21.530471,7.00649 0.0711,22.71245 c 0.0564,18.02901 -8.4e-4,22.73692 -0.27782,22.83108 z"
       id="path4" /><path
       style="fill:#000000;stroke:#000000;stroke-width:0.277813"
       d="m 72.847973,207.3653 c -4.7749,1.55098 -14.413351,4.68283 -21.418781,6.95966 -7.00542,2.27683 -12.88116,4.13737 -13.05718,4.13454 -0.26568,-0.004 -6.76847,-8.85401 -24.71346,-33.6329 l -2.16841,-2.99419 12.97364,-17.86896 c 7.13549,-9.82792 13.17542,-18.08527 13.42206,-18.34966 0.42244,-0.45285 1.70004,-0.0745 22.04522,6.5286 l 21.596781,7.00929 8.4e-4,22.69682 8.3e-4,22.69683 z"
       id="path5" /><path
       style="fill:#000000;stroke:#000000;stroke-width:0.277813"
       d="m 140.58131,207.3653 c -4.77491,1.55098 -14.41336,4.68283 -21.41878,6.95966 -7.00543,2.27683 -12.88117,4.13737 -13.05719,4.13454 -0.26568,-0.004 -6.768467,-8.85401 -24.713457,-33.6329 l -2.1684,-2.99419 12.97363,-17.86896 c 7.1355,-9.82792 13.175417,-18.08527 13.422057,-18.34966 0.42244,-0.45285 1.70005,-0.0745 22.04522,6.5286 l 21.59678,7.00929 8.4e-4,22.69682 8.3e-4,22.69683 z"
       id="path6" /><path
       style="fill:#000000;stroke:#000000;stroke-width:0.277813"
       d="m 79.793313,133.92482 c -0.95498,0.29586 -10.62377,3.42627 -21.486201,6.95647 -10.86243,3.5302 -19.86355,6.41336 -20.0025,6.40703 -0.13894,-0.006 -6.2293,-8.25485 -13.53412,-18.33003 l -13.28149,-18.31852 13.26281,-18.271763 c 7.29455,-10.04947 13.30129,-18.32267 13.34832,-18.38489 0.047,-0.0622 9.83791,3.05678 21.75751,6.93112 l 21.672001,7.04426 v 22.714193 22.7142 z"
       id="path7" /><path
       style="fill:#000000;stroke:#000000;stroke-width:0.277813"
       d="m 147.52664,133.92482 c -0.95498,0.29586 -10.62377,3.42627 -21.4862,6.95647 -10.86243,3.5302 -19.86355,6.41336 -20.0025,6.40703 -0.13894,-0.006 -6.229287,-8.25485 -13.534117,-18.33003 l -13.28149,-18.31852 13.26281,-18.271763 c 7.29455,-10.04947 13.301297,-18.32267 13.348317,-18.38489 0.047,-0.0622 9.83791,3.05678 21.75751,6.93112 l 21.672,7.04426 v 22.714193 22.7142 z"
       id="path8" /><path
       style="fill:#000000;stroke:#000000;stroke-width:0.277813"
       d="m 215.25998,133.92482 c -0.95498,0.29586 -10.62377,3.42627 -21.4862,6.95647 -10.86243,3.5302 -19.86356,6.41336 -20.0025,6.40703 -0.13895,-0.006 -6.2293,-8.25485 -13.53412,-18.33003 l -13.2815,-18.31852 13.26282,-18.271763 c 7.29454,-10.04947 13.30129,-18.32267 13.34832,-18.38489 0.047,-0.0622 9.8379,3.05678 21.7575,6.93112 l 21.67201,7.04426 v 22.714193 22.7142 z"
       id="path9" /><path
       style="fill:#000000;stroke:#000000;stroke-width:0.277813"
       d="m 208.31464,207.3653 c -4.7749,1.55098 -14.41336,4.68283 -21.41878,6.95966 -7.00543,2.27683 -12.88116,4.13737 -13.05719,4.13454 -0.26568,-0.004 -6.76846,-8.85401 -24.71345,-33.6329 l -2.16841,-2.99419 12.97363,-17.86896 c 7.1355,-9.82792 13.17543,-18.08527 13.42207,-18.34966 0.42244,-0.45285 1.70004,-0.0745 22.04521,6.5286 l 21.59679,7.00929 8.3e-4,22.69682 8.3e-4,22.69683 z"
       id="path10" /><path
       style="fill:#000000;stroke:#000000;stroke-width:0.277813"
       d="m 216.64551,275.87847 c -0.19189,0.0652 -9.85008,3.20108 -21.46264,6.96853 -11.61257,3.76746 -21.19374,6.8972 -21.29151,6.95499 -0.13711,0.0811 -25.78043,-34.92023 -26.70043,-36.44415 -0.13182,-0.21835 4.59074,-6.95279 12.87378,-18.35819 7.19508,-9.90734 13.22701,-18.16281 13.40428,-18.34551 0.24879,-0.2564 5.23396,1.26618 21.85278,6.67431 l 21.53047,7.00649 0.0711,22.71245 c 0.0564,18.02901 -8.3e-4,22.73692 -0.27781,22.83108 z"
       id="path11" /><path
       style="fill:#000000;stroke:#000000;stroke-width:0.277813"
       d="m 284.37885,275.87847 c -0.19191,0.0652 -9.85009,3.20108 -21.46265,6.96853 -11.61257,3.76746 -21.19374,6.8972 -21.29151,6.95499 -0.13711,0.0811 -25.78043,-34.92023 -26.70043,-36.44415 -0.13182,-0.21835 4.59074,-6.95279 12.87378,-18.35819 7.19508,-9.90734 13.22701,-18.16281 13.40428,-18.34551 0.24879,-0.2564 5.23396,1.26618 21.85278,6.67431 l 21.53047,7.00649 0.0711,22.71245 c 0.0564,18.02901 0,22.73692 -0.27781,22.83108 z"
       id="path12" /><path
       style="fill:#000000;stroke:#000000;stroke-width:0.277813"
       d="m 276.04801,207.3653 c -4.7749,1.55098 -14.41335,4.68283 -21.41878,6.95966 -7.00543,2.27683 -12.88116,4.13737 -13.05719,4.13454 -0.26568,-0.004 -6.76846,-8.85401 -24.71345,-33.6329 l -2.16841,-2.99419 12.97363,-17.86896 c 7.1355,-9.82792 13.17543,-18.08527 13.42207,-18.34966 0.42244,-0.45285 1.70004,-0.0745 22.04521,6.5286 l 21.59678,7.00929 v 22.69682 22.69683 z"
       id="path13" /><path
       style="fill:#000000;stroke:#000000;stroke-width:0.555625"
       d="m 283.33835,133.63712 c -0.69103,0.26 -10.34096,3.41492 -21.4443,7.01093 -19.68507,6.37535 -20.21216,6.51206 -21.16271,5.48886 -1.43993,-1.54999 -25.60221,-35.0291 -25.60221,-35.47427 0,-0.57935 26.16093,-36.417763 26.58097,-36.413823 0.20176,0.002 9.86803,3.083 21.48059,6.84691 l 21.11375,6.84348 0.14516,22.612593 0.14513,22.61259 z"
       id="path14" /></g><g
     inkscape:groupmode="layer"
     id="layer2"
     inkscape:label="Numbers_UV"
     style="display:none"><text
       xml:space="preserve"
       style="font-size:50.8px;font-family:Dubai;-inkscape-font-specification:Dubai;fill:#ffffff;stroke:#ffffff;stroke-width:0.264583"
       x="-267.52682"
       y="66.235176"
       id="text27"
       transform="rotate(-90)"><tspan
         sodipodi:role="line"
         id="tspan27"
         style="stroke-width:0.264583"
         x="-267.52682"
         y="66.235176">1</tspan></text><text
       xml:space="preserve"
       style="font-size:50.8px;font-family:Dubai;-inkscape-font-specification:Dubai;fill:#ffffff;stroke:#ffffff;stroke-width:0.264583"
       x="-194.9241"
       y="66.742126"
       id="text27-4"
       transform="rotate(-90)"><tspan
         sodipodi:role="line"
         id="tspan27-7"
         style="stroke-width:0.264583"
         x="-194.9241"
         y="66.742126">2</tspan></text><text
       xml:space="preserve"
       style="font-size:50.8px;font-family:Dubai;-inkscape-font-specification:Dubai;fill:#ffffff;stroke:#ffffff;stroke-width:0.264583"
       x="-123.59349"
       y="67.293533"
       id="text28"
       transform="rotate(-90)"><tspan
         sodipodi:role="line"
         id="tspan28"
         style="stroke-width:0.264583"
         x="-123.59349"
         y="67.293533">3</tspan></text><text
       xml:space="preserve"
       style="font-size:50.8px;font-family:Dubai;-inkscape-font-specification:Dubai;fill:#ffffff;stroke:#ffffff;stroke-width:0.264583"
       x="-268.056"
       y="134.4977"
       id="text29"
       transform="rotate(-90)"><tspan
         sodipodi:role="line"
         id="tspan29"
         style="stroke-width:0.264583"
         x="-268.056"
         y="134.4977">4</tspan></text><text
       xml:space="preserve"
       style="font-size:50.8px;font-family:Dubai;-inkscape-font-specification:Dubai;fill:#ffffff;stroke:#ffffff;stroke-width:0.264583"
       x="-195.56015"
       y="135.02687"
       id="text30"
       transform="rotate(-90)"><tspan
         sodipodi:role="line"
         id="tspan30"
         style="stroke-width:0.264583"
         x="-195.56015"
         y="135.02687">5</tspan></text><text
       xml:space="preserve"
       style="font-size:50.8px;font-family:Dubai;-inkscape-font-specification:Dubai;fill:#ffffff;stroke:#ffffff;stroke-width:0.264583"
       x="-129.9435"
       y="137.14354"
       id="text31"
       transform="rotate(-90)"><tspan
         sodipodi:role="line"
         id="tspan31"
         style="stroke-width:0.264583"
         x="-129.9435"
         y="137.14354">6.</tspan></text><text
       xml:space="preserve"
       style="font-size:50.8px;font-family:Dubai;-inkscape-font-specification:Dubai;fill:#ffffff;stroke:#ffffff;stroke-width:0.264583"
       x="-265.41019"
       y="203.28937"
       id="text32"
       transform="rotate(-90)"><tspan
         sodipodi:role="line"
         id="tspan32"
         style="stroke-width:0.264583"
         x="-265.41019"
         y="203.28937">7</tspan></text><text
       xml:space="preserve"
       style="font-size:50.8px;font-family:Dubai;-inkscape-font-specification:Dubai;fill:#ffffff;stroke:#ffffff;stroke-width:0.264583"
       x="-195.03099"
       y="201.70187"
       id="text33"
       transform="rotate(-90)"><tspan
         sodipodi:role="line"
         id="tspan33"
         style="stroke-width:0.264583"
         x="-195.03099"
         y="201.70187">8</tspan></text><text
       xml:space="preserve"
       style="font-size:50.8px;font-family:Dubai;-inkscape-font-specification:Dubai;fill:#ffffff;stroke:#ffffff;stroke-width:0.264583"
       x="-128.88515"
       y="204.87685"
       id="text34"
       transform="rotate(-90)"><tspan
         sodipodi:role="line"
         id="tspan34"
         style="stroke-width:0.264583"
         x="-128.88515"
         y="204.87685">9.</tspan></text><text
       xml:space="preserve"
       style="font-size:50.8px;font-family:Dubai;-inkscape-font-specification:Dubai;fill:#ffffff;stroke:#ffffff;stroke-width:0.264583"
       x="-279.69766"
       y="272.08105"
       id="text35"
       transform="rotate(-90)"><tspan
         sodipodi:role="line"
         id="tspan35"
         style="stroke-width:0.264583"
         x="-279.69766"
         y="272.08105">10</tspan></text><text
       xml:space="preserve"
       style="font-size:50.8px;font-family:Dubai;-inkscape-font-specification:Dubai;fill:#ffffff;stroke:#ffffff;stroke-width:0.264583"
       x="-209.3185"
       y="271.55185"
       id="text36"
       transform="rotate(-90)"><tspan
         sodipodi:role="line"
         id="tspan36"
         style="stroke-width:0.264583"
         x="-209.3185"
         y="271.55185">11</tspan></text><text
       xml:space="preserve"
       style="font-size:50.8px;font-family:Dubai;-inkscape-font-specification:Dubai;fill:#ffffff;stroke:#ffffff;stroke-width:0.264583"
       x="-138.41016"
       y="272.08102"
       id="text37"
       transform="rotate(-90)"><tspan
         sodipodi:role="line"
         id="tspan37"
         style="stroke-width:0.264583"
         x="-138.41016"
         y="272.08102">12</tspan></text></g><g
     inkscape:label="Face_Color"
     inkscape:groupmode="layer"
     id="g27"
     style="display:inline"><path
       style="fill:#000000;stroke:#000000;stroke-width:0.277813"
       d="m 148.91217,275.87847 c -0.19189,0.0652 -9.85007,3.20108 -21.46264,6.96853 -11.61256,3.76746 -21.19373,6.8972 -21.2915,6.95499 -0.13711,0.0811 -25.780437,-34.92023 -26.700427,-36.44415 -0.13182,-0.21835 4.59074,-6.95279 12.87378,-18.35819 7.19508,-9.90734 13.227007,-18.16281 13.404277,-18.34551 0.24878,-0.2564 5.23396,1.26618 21.85278,6.67431 l 21.53047,7.00649 0.0711,22.71245 c 0.0564,18.02901 -8.4e-4,22.73692 -0.27782,22.83108 z"
       id="path15" /><path
       style="fill:#000000;stroke:#000000;stroke-width:0.277813"
       d="m 149.02761,274.55641 -0.085,1.17155 -4.77674,1.53082 c -2.62719,0.84195 -12.21515,3.95873 -21.30657,6.92618 -9.09141,2.96744 -16.61921,5.34091 -16.72843,5.27437 -0.10923,-0.0665 -2.98093,-3.89804 -6.381557,-8.51444 -12.59097,-17.09246 -19.94585,-27.29537 -19.94836,-27.67298 -0.003,-0.50668 5.02539,-7.65529 15.65443,-22.25346 4.728237,-6.49387 8.976977,-12.33835 9.441647,-12.98773 0.46467,-0.64939 1.04707,-1.18071 1.29422,-1.18071 0.77984,0 13.26126,3.95448 36.02212,11.41287 3.69248,1.20997 6.75537,2.19992 6.80641,2.19988 0.11627,-8e-5 0.12381,42.49469 0.008,44.09365 z"
       id="path16" /><path
       style="fill:#000000;stroke:#000000;stroke-width:0.277813"
       d="m 81.178843,275.87847 c -0.19189,0.0652 -9.85008,3.20108 -21.462641,6.96853 -11.61256,3.76746 -21.19374,6.8972 -21.2915,6.95499 -0.13711,0.0811 -25.78044,-34.92023 -26.70043,-36.44415 -0.13182,-0.21835 4.59074,-6.95279 12.87378,-18.35819 7.19508,-9.90734 13.22701,-18.16281 13.40428,-18.34551 0.24878,-0.2564 5.23396,1.26618 21.85278,6.67431 l 21.530471,7.00649 0.0711,22.71245 c 0.0564,18.02901 -8.4e-4,22.73692 -0.27782,22.83108 z"
       id="path17" /><path
       style="fill:#000000;stroke:#000000;stroke-width:0.277813"
       d="m 72.847973,207.3653 c -4.7749,1.55098 -14.413351,4.68283 -21.418781,6.95966 -7.00542,2.27683 -12.88116,4.13737 -13.05718,4.13454 -0.26568,-0.004 -6.76847,-8.85401 -24.71346,-33.6329 l -2.16841,-2.99419 12.97364,-17.86896 c 7.13549,-9.82792 13.17542,-18.08527 13.42206,-18.34966 0.42244,-0.45285 1.70004,-0.0745 22.04522,6.5286 l 21.596781,7.00929 8.4e-4,22.69682 8.3e-4,22.69683 z"
       id="path18" /><path
       style="fill:#000000;stroke:#000000;stroke-width:0.277813"
       d="m 140.58131,207.3653 c -4.77491,1.55098 -14.41336,4.68283 -21.41878,6.95966 -7.00543,2.27683 -12.88117,4.13737 -13.05719,4.13454 -0.26568,-0.004 -6.768467,-8.85401 -24.713457,-33.6329 l -2.1684,-2.99419 12.97363,-17.86896 c 7.1355,-9.82792 13.175417,-18.08527 13.422057,-18.34966 0.42244,-0.45285 1.70005,-0.0745 22.04522,6.5286 l 21.59678,7.00929 8.4e-4,22.69682 8.3e-4,22.69683 z"
       id="path19" /><path
       style="fill:#000000;stroke:#000000;stroke-width:0.277813"
       d="m 79.793313,133.92482 c -0.95498,0.29586 -10.62377,3.42627 -21.486201,6.95647 -10.86243,3.5302 -19.86355,6.41336 -20.0025,6.40703 -0.13894,-0.006 -6.2293,-8.25485 -13.53412,-18.33003 l -13.28149,-18.31852 13.26281,-18.271763 c 7.29455,-10.04947 13.30129,-18.32267 13.34832,-18.38489 0.047,-0.0622 9.83791,3.05678 21.75751,6.93112 l 21.672001,7.04426 v 22.714193 22.7142 z"
       id="path20" /><path
       style="fill:#000000;stroke:#000000;stroke-width:0.277813"
       d="m 147.52664,133.92482 c -0.95498,0.29586 -10.62377,3.42627 -21.4862,6.95647 -10.86243,3.5302 -19.86355,6.41336 -20.0025,6.40703 -0.13894,-0.006 -6.229287,-8.25485 -13.534117,-18.33003 l -13.28149,-18.31852 13.26281,-18.271763 c 7.29455,-10.04947 13.301297,-18.32267 13.348317,-18.38489 0.047,-0.0622 9.83791,3.05678 21.75751,6.93112 l 21.672,7.04426 v 22.714193 22.7142 z"
       id="path21" /><path
       style="fill:#000000;stroke:#000000;stroke-width:0.277813"
       d="m 215.25998,133.92482 c -0.95498,0.29586 -10.62377,3.42627 -21.4862,6.95647 -10.86243,3.5302 -19.86356,6.41336 -20.0025,6.40703 -0.13895,-0.006 -6.2293,-8.25485 -13.53412,-18.33003 l -13.2815,-18.31852 13.26282,-18.271763 c 7.29454,-10.04947 13.30129,-18.32267 13.34832,-18.38489 0.047,-0.0622 9.8379,3.05678 21.7575,6.93112 l 21.67201,7.04426 v 22.714193 22.7142 z"
       id="path22" /><path
       style="fill:#000000;stroke:#000000;stroke-width:0.277813"
       d="m 208.31464,207.3653 c -4.7749,1.55098 -14.41336,4.68283 -21.41878,6.95966 -7.00543,2.27683 -12.88116,4.13737 -13.05719,4.13454 -0.26568,-0.004 -6.76846,-8.85401 -24.71345,-33.6329 l -2.16841,-2.99419 12.97363,-17.86896 c 7.1355,-9.82792 13.17543,-18.08527 13.42207,-18.34966 0.42244,-0.45285 1.70004,-0.0745 22.04521,6.5286 l 21.59679,7.00929 8.3e-4,22.69682 8.3e-4,22.69683 z"
       id="path23" /><path
       style="fill:#000000;stroke:#000000;stroke-width:0.277813"
       d="m 216.64551,275.87847 c -0.19189,0.0652 -9.85008,3.20108 -21.46264,6.96853 -11.61257,3.76746 -21.19374,6.8972 -21.29151,6.95499 -0.13711,0.0811 -25.78043,-34.92023 -26.70043,-36.44415 -0.13182,-0.21835 4.59074,-6.95279 12.87378,-18.35819 7.19508,-9.90734 13.22701,-18.16281 13.40428,-18.34551 0.24879,-0.2564 5.23396,1.26618 21.85278,6.67431 l 21.53047,7.00649 0.0711,22.71245 c 0.0564,18.02901 -8.3e-4,22.73692 -0.27781,22.83108 z"
       id="path24" /><path
       style="fill:#000000;stroke:#000000;stroke-width:0.277813"
       d="m 284.37885,275.87847 c -0.19191,0.0652 -9.85009,3.20108 -21.46265,6.96853 -11.61257,3.76746 -21.19374,6.8972 -21.29151,6.95499 -0.13711,0.0811 -25.78043,-34.92023 -26.70043,-36.44415 -0.13182,-0.21835 4.59074,-6.95279 12.87378,-18.35819 7.19508,-9.90734 13.22701,-18.16281 13.40428,-18.34551 0.24879,-0.2564 5.23396,1.26618 21.85278,6.67431 l 21.53047,7.00649 0.0711,22.71245 c 0.0564,18.02901 0,22.73692 -0.27781,22.83108 z"
       id="path25" /><path
       style="fill:#000000;stroke:#000000;stroke-width:0.277813"
       d="m 276.04801,207.3653 c -4.7749,1.55098 -14.41335,4.68283 -21.41878,6.95966 -7.00543,2.27683 -12.88116,4.13737 -13.05719,4.13454 -0.26568,-0.004 -6.76846,-8.85401 -24.71345,-33.6329 l -2.16841,-2.99419 12.97363,-17.86896 c 7.1355,-9.82792 13.17543,-18.08527 13.42207,-18.34966 0.42244,-0.45285 1.70004,-0.0745 22.04521,6.5286 l 21.59678,7.00929 v 22.69682 22.69683 z"
       id="path26" /><path
       style="fill:#000000;stroke:#000000;stroke-width:0.555625"
       d="m 283.33835,133.63712 c -0.69103,0.26 -10.34096,3.41492 -21.4443,7.01093 -19.68507,6.37535 -20.21216,6.51206 -21.16271,5.48886 -1.43993,-1.54999 -25.60221,-35.0291 -25.60221,-35.47427 0,-0.57935 26.16093,-36.417763 26.58097,-36.413823 0.20176,0.002 9.86803,3.083 21.48059,6.84691 l 21.11375,6.84348 0.14516,22.612593 0.14513,22.61259 z"
       id="path27" /><path
       style="fill:#800080;stroke:#800080;stroke-width:0.529167"
       d="m 283.59611,275.63914 c -0.78867,0.40862 -32.89212,11.00768 -39.67394,13.09848 l -2.22967,0.68739 -8.63913,-11.74284 c -4.75152,-6.45856 -10.2966,-14.03418 -12.32241,-16.83471 l -3.68328,-5.09187 -0.26458,9.85437 -0.26458,9.85437 -18.78542,6.21641 c -10.33198,3.41902 -19.9108,6.55965 -21.28627,6.97917 l -2.50086,0.76276 -9.01348,-12.27084 c -4.95741,-6.74896 -10.55905,-14.4002 -12.4481,-17.00276 l -3.43462,-4.73192 v 10.11484 10.11484 l -1.71979,0.53829 c -2.96801,0.92898 -39.78784,12.90051 -40.44716,13.15092 -0.60198,0.22863 -5.28233,-5.86766 -18.968247,-24.70666 l -6.33355,-8.71828 -0.26458,9.77662 -0.26459,9.77661 -20.372911,6.7301 c -11.20511,3.70156 -20.81656,6.79719 -21.35878,6.87917 -0.74586,0.11277 -3.64427,-3.47011 -11.90625,-14.71796 -6.00621,-8.17687 -11.92555,-16.30117 -13.15408,-18.05402 l -2.2337,-3.18699 7.54125,-10.52099 c 4.14769,-5.78654 9.85582,-13.66738 12.68474,-17.51299 2.82891,-3.8456 5.14348,-7.26827 5.14348,-7.60593 0,-0.33766 -5.5545,-8.26407 -12.34333,-17.61424 -6.78883,-9.35017 -12.50229,-17.27273 -12.69656,-17.60569 -0.19756,-0.33857 5.23602,-8.26776 12.32903,-17.99167 6.97524,-9.56246 12.6887,-17.68313 12.69656,-18.04594 0.008,-0.3628 -2.3172,-3.81562 -5.16681,-7.67291 -14.8954,-20.16275 -20.30569,-27.96815 -19.81929,-28.59325 0.27604,-0.35477 6.15152,-8.44362 13.0566,-17.975233 6.90509,-9.53162 12.88533,-17.33021 13.28941,-17.33021 0.40409,0 8.89867,2.65551 18.87684,5.90114 9.978171,3.24562 19.387281,6.25998 20.909131,6.69856 l 2.76699,0.79743 0.14342,9.94636 0.14343,9.946373 12.07583,-16.644933 c 6.641697,-9.15471 12.408047,-16.64493 12.814107,-16.64493 0.40606,0 8.90225,2.65551 18.88042,5.90114 9.97818,3.24562 19.38728,6.25998 20.90913,6.69856 l 2.767,0.79743 0.14342,9.94636 0.14342,9.946373 12.07583,-16.644933 c 6.6417,-9.15471 12.40806,-16.64493 12.81411,-16.64493 0.40606,0 8.90225,2.65551 18.88043,5.90114 9.97817,3.24562 19.38728,6.25998 20.90912,6.69856 l 2.767,0.79743 0.14342,10.07644 0.14342,10.076433 11.28992,-15.475033 c 6.20945,-8.51127 11.80539,-16.07418 12.43541,-16.80646 l 1.14551,-1.33141 15.08125,4.85656 c 8.29468,2.67111 17.72184,5.69013 20.94925,6.70892 l 5.86801,1.85236 0.3438,22.273863 c 0.18907,12.25062 0.16785,22.43749 -0.0472,22.6375 -0.48786,0.45378 -38.2457,12.64788 -39.15243,12.6445 -1.92894,-0.007 -0.0831,1.01761 4.49792,2.49727 2.83765,0.91655 11.8864,3.84413 20.10833,6.50574 l 14.94896,4.83929 v 22.42703 22.42704 l -19.71146,6.40422 c -10.8413,3.52232 -19.94958,6.47986 -20.24063,6.5723 -0.76128,0.24182 -0.80403,0.22703 20.37292,7.05019 l 19.31458,6.22311 0.13801,22.3269 c 0.12896,20.86122 0.0769,22.3586 -0.79375,22.80967 z m -54.77447,-74.97049 -11.77396,-16.20238 -0.14391,9.89703 -0.1439,9.89704 -19.69985,6.40042 c -10.83491,3.52024 -19.93796,6.47607 -20.229,6.56851 -0.76135,0.24184 -0.80326,0.22734 20.37291,7.04954 l 19.31459,6.22246 0.26458,10.00134 0.26458,10.00133 8.56641,-11.86147 c 4.71152,-6.52381 9.99535,-13.76648 11.74185,-16.09481 1.74649,-2.32833 3.18989,-4.55808 3.20756,-4.95498 0.0177,-0.39691 -5.26618,-8.01272 -11.74186,-16.92403 z m 4.73522,-64.78113 c -3.8713,-5.30651 -9.16958,-12.62475 -11.77395,-16.26278 l -4.73523,-6.61458 -0.14334,10.08099 -0.14335,10.08099 -4.35457,1.39152 c -2.39501,0.76533 -11.49832,3.7054 -20.22957,6.53349 l -15.875,5.14197 5.29167,1.74489 c 2.91042,0.95969 12.01351,3.9189 20.22909,6.57603 l 14.93743,4.83113 0.14382,9.86343 0.14382,9.86342 11.75975,-16.1206 c 6.46786,-8.86633 11.76615,-16.42234 11.77396,-16.79115 0.008,-0.3688 -3.15322,-5.01224 -7.02453,-10.31875 z m -84.38642,58.48195 -0.14391,9.89087 -19.69984,6.40042 c -10.83491,3.52024 -19.93796,6.47607 -20.229,6.56851 -0.71838,0.22819 -1.09331,0.0979 17.72708,6.16236 9.16781,2.95415 17.85937,5.7587 19.31458,6.23235 l 2.64584,0.86118 0.26458,10.03689 0.26458,10.0369 5.09745,-7.12648 c 2.8036,-3.91956 8.19986,-11.37007 11.99169,-16.55668 l 6.89422,-9.4302 -11.99168,-16.48349 -11.99168,-16.4835 z m 11.521,-65.44702 -11.37709,-15.61115 -0.14334,9.93042 -0.14336,9.93042 -4.35456,1.39152 c -2.39501,0.76533 -11.49832,3.7054 -20.22957,6.53349 l -15.875,5.14197 5.29167,1.74489 c 2.91041,0.95969 12.0135,3.9189 20.22909,6.57603 l 14.93743,4.83113 0.14382,9.85972 0.14382,9.85972 11.97683,-16.38147 c 10.11465,-13.83447 11.88357,-16.52251 11.37708,-17.28851 -0.32986,-0.49886 -5.71943,-7.93204 -11.97682,-16.51818 z m -67.336457,71.7462 -11.77396,-16.20238 -0.14391,9.89703 -0.14391,9.89704 -19.699841,6.40042 c -10.83491,3.52024 -19.93797,6.47607 -20.22901,6.56851 -0.76134,0.24184 -0.80325,0.22734 20.37292,7.04954 l 19.314581,6.22246 0.26459,9.98607 0.26458,9.98607 3.52351,-4.96704 c 1.93793,-2.73187 7.23621,-10.07458 11.77396,-16.31712 4.537737,-6.24255 8.250447,-11.56791 8.250447,-11.83415 0,-0.26624 -5.298287,-7.77514 -11.773957,-16.68645 z m 3.70416,-66.06945 c -4.43838,-6.05771 -9.73666,-13.34611 -11.77395,-16.19644 l -3.70417,-5.18242 -0.14335,9.9759 -0.14335,9.9759 -4.35456,1.39152 c -2.39502,0.76533 -11.49832,3.7054 -20.229571,6.53349 l -15.875,5.14197 5.29166,1.74489 c 2.91042,0.95969 12.01351,3.9189 20.229101,6.57603 l 14.93742,4.83113 0.14383,9.86343 0.14382,9.86342 11.75975,-16.1206 c 6.46786,-8.86633 11.766137,-16.4049 11.773957,-16.7524 0.008,-0.34749 -3.6172,-5.58811 -8.055587,-11.64582 z"
       id="path49" /></g><g
     inkscape:groupmode="layer"
     id="g49"
     inkscape:label="Numbers_UV copy"
     style="display:inline"><text
       xml:space="preserve"
       style="font-size:50.8px;font-family:Dubai;-inkscape-font-specification:Dubai;fill:#ffffff;stroke:#ffffff;stroke-width:0.264583"
       x="-267.52682"
       y="66.235176"
       id="text38"
       transform="rotate(-90)"><tspan
         sodipodi:role="line"
         id="tspan38"
         style="stroke-width:0.264583"
         x="-267.52682"
         y="66.235176">1</tspan></text><text
       xml:space="preserve"
       style="font-size:50.8px;font-family:Dubai;-inkscape-font-specification:Dubai;fill:#ffffff;stroke:#ffffff;stroke-width:0.264583"
       x="-194.9241"
       y="66.742126"
       id="text39"
       transform="rotate(-90)"><tspan
         sodipodi:role="line"
         id="tspan39"
         style="stroke-width:0.264583"
         x="-194.9241"
         y="66.742126">2</tspan></text><text
       xml:space="preserve"
       style="font-size:50.8px;font-family:Dubai;-inkscape-font-specification:Dubai;fill:#ffffff;stroke:#ffffff;stroke-width:0.264583"
       x="-123.59349"
       y="67.293533"
       id="text40"
       transform="rotate(-90)"><tspan
         sodipodi:role="line"
         id="tspan40"
         style="stroke-width:0.264583"
         x="-123.59349"
         y="67.293533">3</tspan></text><text
       xml:space="preserve"
       style="font-size:50.8px;font-family:Dubai;-inkscape-font-specification:Dubai;fill:#ffffff;stroke:#ffffff;stroke-width:0.264583"
       x="-268.056"
       y="134.4977"
       id="text41"
       transform="rotate(-90)"><tspan
         sodipodi:role="line"
         id="tspan41"
         style="stroke-width:0.264583"
         x="-268.056"
         y="134.4977">4</tspan></text><text
       xml:space="preserve"
       style="font-size:50.8px;font-family:Dubai;-inkscape-font-specification:Dubai;fill:#ffffff;stroke:#ffffff;stroke-width:0.264583"
       x="-195.56015"
       y="135.02687"
       id="text42"
       transform="rotate(-90)"><tspan
         sodipodi:role="line"
         id="tspan42"
         style="stroke-width:0.264583"
         x="-195.56015"
         y="135.02687">5</tspan></text><text
       xml:space="preserve"
       style="font-size:50.8px;font-family:Dubai;-inkscape-font-specification:Dubai;fill:#ffffff;stroke:#ffffff;stroke-width:0.264583"
       x="-129.9435"
       y="137.14354"
       id="text43"
       transform="rotate(-90)"><tspan
         sodipodi:role="line"
         id="tspan43"
         style="stroke-width:0.264583"
         x="-129.9435"
         y="137.14354">6.</tspan></text><text
       xml:space="preserve"
       style="font-size:50.8px;font-family:Dubai;-inkscape-font-specification:Dubai;fill:#ffffff;stroke:#ffffff;stroke-width:0.264583"
       x="-265.41019"
       y="203.28937"
       id="text44"
       transform="rotate(-90)"><tspan
         sodipodi:role="line"
         id="tspan44"
         style="stroke-width:0.264583"
         x="-265.41019"
         y="203.28937">7</tspan></text><text
       xml:space="preserve"
       style="font-size:50.8px;font-family:Dubai;-inkscape-font-specification:Dubai;fill:#ffffff;stroke:#ffffff;stroke-width:0.264583"
       x="-195.03099"
       y="201.70187"
       id="text45"
       transform="rotate(-90)"><tspan
         sodipodi:role="line"
         id="tspan45"
         style="stroke-width:0.264583"
         x="-195.03099"
         y="201.70187">8</tspan></text><text
       xml:space="preserve"
       style="font-size:50.8px;font-family:Dubai;-inkscape-font-specification:Dubai;fill:#ffffff;stroke:#ffffff;stroke-width:0.264583"
       x="-128.88515"
       y="204.87685"
       id="text46"
       transform="rotate(-90)"><tspan
         sodipodi:role="line"
         id="tspan46"
         style="stroke-width:0.264583"
         x="-128.88515"
         y="204.87685">9.</tspan></text><text
       xml:space="preserve"
       style="font-size:50.8px;font-family:Dubai;-inkscape-font-specification:Dubai;fill:#ffffff;stroke:#ffffff;stroke-width:0.264583"
       x="-279.69766"
       y="272.08105"
       id="text47"
       transform="rotate(-90)"><tspan
         sodipodi:role="line"
         id="tspan47"
         style="stroke-width:0.264583"
         x="-279.69766"
         y="272.08105">10</tspan></text><text
       xml:space="preserve"
       style="font-size:50.8px;font-family:Dubai;-inkscape-font-specification:Dubai;fill:#ffffff;stroke:#ffffff;stroke-width:0.264583"
       x="-209.3185"
       y="271.55185"
       id="text48"
       transform="rotate(-90)"><tspan
         sodipodi:role="line"
         id="tspan48"
         style="stroke-width:0.264583"
         x="-209.3185"
         y="271.55185">11</tspan></text><text
       xml:space="preserve"
       style="font-size:50.8px;font-family:Dubai;-inkscape-font-specification:Dubai;fill:#ffffff;stroke:#ffffff;stroke-width:0.264583"
       x="-138.41016"
       y="272.08102"
       id="text49"
       transform="rotate(-90)"><tspan
         sodipodi:role="line"
         id="tspan49"
         style="stroke-width:0.264583"
         x="-138.41016"
         y="272.08102">12</tspan></text></g></svg>
