{
	"asset":{
		"generator":"Khronos glTF Blender I/O v4.2.70",
		"version":"2.0"
	},
	"extensionsUsed":[
		"KHR_materials_specular"
	],
	"scene":0,
	"scenes":[
		{
			"name":"Scene",
			"nodes":[
				0,
				1,
				2,
				3,
				4
			]
		}
	],
	"nodes":[
		{
			"mesh":0,
			"name":"D6"
		},
		{
			"mesh":1,
			"name":"D20",
			"translation":[
				3.0226669311523438,
				0.6849592924118042,
				1.9529088735580444
			]
		},
		{
			"mesh":2,
			"name":"D8"
		},
		{
			"mesh":3,
			"name":"D12"
		},
		{
			"mesh":4,
			"name":"Solid",
			"translation":[
				2.4731786251068115,
				-0.4162464737892151,
				0.43585875630378723
			]
		}
	],
	"materials":[
		{
			"doubleSided":true,
			"extensions":{
				"KHR_materials_specular":{
					"specularColorFactor":[
						0.0,
						0.0,
						0.0
					]
				}
			},
			"name":"Material.002",
			"pbrMetallicRoughness":{
				"baseColorTexture":{
					"index":0
				},
				"metallicFactor":0,
				"roughnessFactor":0.25
			}
		},
		{
			"doubleSided":true,
			"name":"Material.001",
			"pbrMetallicRoughness":{
				"baseColorFactor":[
					0.6858336925506592,
					0,
					0.0021379890386015177,
					1
				],
				"metallicFactor":0,
				"roughnessFactor":0.25
			}
		},
		{
			"doubleSided":true,
			"name":"Material.003",
			"pbrMetallicRoughness":{
				"baseColorFactor":[
					0,
					0.34155958890914917,
					0.010864248499274254,
					1
				],
				"metallicFactor":0,
				"roughnessFactor":0.25
			}
		},
		{
			"doubleSided":true,
			"name":"Material.005",
			"pbrMetallicRoughness":{
				"baseColorFactor":[
					0,
					0,
					0,
					1
				],
				"metallicFactor":0,
				"roughnessFactor":0.5
			}
		},
		{
			"doubleSided":true,
			"name":"Material.004",
			"pbrMetallicRoughness":{
				"baseColorFactor":[
					0,
					0.0001257509138667956,
					0.531396210193634,
					1
				],
				"metallicFactor":0,
				"roughnessFactor":0.5
			}
		}
	],
	"meshes":[
		{
			"name":"Cube.001",
			"primitives":[
				{
					"attributes":{
						"POSITION":0,
						"NORMAL":1,
						"TEXCOORD_0":2
					},
					"indices":3,
					"material":0
				}
			]
		},
		{
			"name":"Solid.002",
			"primitives":[
				{
					"attributes":{
						"POSITION":4,
						"NORMAL":5,
						"TEXCOORD_0":6,
						"COLOR_0":7,
						"COLOR_1":8
					},
					"indices":9,
					"material":1
				}
			]
		},
		{
			"name":"Solid.003",
			"primitives":[
				{
					"attributes":{
						"POSITION":10,
						"NORMAL":11,
						"TEXCOORD_0":12
					},
					"indices":13,
					"material":2
				}
			]
		},
		{
			"name":"Solid.004",
			"primitives":[
				{
					"attributes":{
						"POSITION":14,
						"NORMAL":15,
						"TEXCOORD_0":16
					},
					"indices":17,
					"material":3
				}
			]
		},
		{
			"name":"Solid",
			"primitives":[
				{
					"attributes":{
						"POSITION":18,
						"NORMAL":19,
						"TEXCOORD_0":20
					},
					"indices":21,
					"material":4
				}
			]
		}
	],
	"textures":[
		{
			"sampler":0,
			"source":0
		}
	],
	"images":[
		{
			"mimeType":"image/png",
			"name":"allnumbers",
			"uri":"allnumbers.png"
		}
	],
	"accessors":[
		{
			"bufferView":0,
			"componentType":5126,
			"count":24,
			"max":[
				1,
				1,
				1
			],
			"min":[
				-1,
				-1,
				-1
			],
			"type":"VEC3"
		},
		{
			"bufferView":1,
			"componentType":5126,
			"count":24,
			"type":"VEC3"
		},
		{
			"bufferView":2,
			"componentType":5126,
			"count":24,
			"type":"VEC2"
		},
		{
			"bufferView":3,
			"componentType":5123,
			"count":36,
			"type":"SCALAR"
		},
		{
			"bufferView":4,
			"componentType":5126,
			"count":60,
			"max":[
				0.8506507873535156,
				0.8506507873535156,
				0.8506507873535156
			],
			"min":[
				-0.8506507873535156,
				-0.8506507873535156,
				-0.8506507873535156
			],
			"type":"VEC3"
		},
		{
			"bufferView":5,
			"componentType":5126,
			"count":60,
			"type":"VEC3"
		},
		{
			"bufferView":6,
			"componentType":5126,
			"count":60,
			"type":"VEC2"
		},
		{
			"bufferView":7,
			"componentType":5121,
			"count":60,
			"normalized":true,
			"type":"VEC4"
		},
		{
			"bufferView":8,
			"componentType":5126,
			"count":60,
			"type":"VEC3"
		},
		{
			"bufferView":9,
			"componentType":5123,
			"count":60,
			"type":"SCALAR"
		},
		{
			"bufferView":10,
			"componentType":5126,
			"count":24,
			"max":[
				1,
				1,
				1
			],
			"min":[
				-1,
				-1,
				-1
			],
			"type":"VEC3"
		},
		{
			"bufferView":11,
			"componentType":5126,
			"count":24,
			"type":"VEC3"
		},
		{
			"bufferView":12,
			"componentType":5126,
			"count":24,
			"type":"VEC2"
		},
		{
			"bufferView":13,
			"componentType":5123,
			"count":24,
			"type":"SCALAR"
		},
		{
			"bufferView":14,
			"componentType":5126,
			"count":60,
			"max":[
				0.9341723322868347,
				0.9341723322868347,
				0.9341723322868347
			],
			"min":[
				-0.9341723322868347,
				-0.9341723322868347,
				-0.9341723322868347
			],
			"type":"VEC3"
		},
		{
			"bufferView":15,
			"componentType":5126,
			"count":60,
			"type":"VEC3"
		},
		{
			"bufferView":16,
			"componentType":5126,
			"count":60,
			"type":"VEC2"
		},
		{
			"bufferView":17,
			"componentType":5123,
			"count":108,
			"type":"SCALAR"
		},
		{
			"bufferView":18,
			"componentType":5126,
			"count":12,
			"max":[
				0.9428090453147888,
				1,
				0.8164966106414795
			],
			"min":[
				-0.4714045226573944,
				-0.3333333432674408,
				-0.8164966106414795
			],
			"type":"VEC3"
		},
		{
			"bufferView":19,
			"componentType":5126,
			"count":12,
			"type":"VEC3"
		},
		{
			"bufferView":20,
			"componentType":5126,
			"count":12,
			"type":"VEC2"
		},
		{
			"bufferView":21,
			"componentType":5123,
			"count":12,
			"type":"SCALAR"
		}
	],
	"bufferViews":[
		{
			"buffer":0,
			"byteLength":288,
			"byteOffset":0,
			"target":34962
		},
		{
			"buffer":0,
			"byteLength":288,
			"byteOffset":288,
			"target":34962
		},
		{
			"buffer":0,
			"byteLength":192,
			"byteOffset":576,
			"target":34962
		},
		{
			"buffer":0,
			"byteLength":72,
			"byteOffset":768,
			"target":34963
		},
		{
			"buffer":0,
			"byteLength":720,
			"byteOffset":840,
			"target":34962
		},
		{
			"buffer":0,
			"byteLength":720,
			"byteOffset":1560,
			"target":34962
		},
		{
			"buffer":0,
			"byteLength":480,
			"byteOffset":2280,
			"target":34962
		},
		{
			"buffer":0,
			"byteLength":240,
			"byteOffset":2760,
			"target":34962
		},
		{
			"buffer":0,
			"byteLength":720,
			"byteOffset":3000,
			"target":34962
		},
		{
			"buffer":0,
			"byteLength":120,
			"byteOffset":3720,
			"target":34963
		},
		{
			"buffer":0,
			"byteLength":288,
			"byteOffset":3840,
			"target":34962
		},
		{
			"buffer":0,
			"byteLength":288,
			"byteOffset":4128,
			"target":34962
		},
		{
			"buffer":0,
			"byteLength":192,
			"byteOffset":4416,
			"target":34962
		},
		{
			"buffer":0,
			"byteLength":48,
			"byteOffset":4608,
			"target":34963
		},
		{
			"buffer":0,
			"byteLength":720,
			"byteOffset":4656,
			"target":34962
		},
		{
			"buffer":0,
			"byteLength":720,
			"byteOffset":5376,
			"target":34962
		},
		{
			"buffer":0,
			"byteLength":480,
			"byteOffset":6096,
			"target":34962
		},
		{
			"buffer":0,
			"byteLength":216,
			"byteOffset":6576,
			"target":34963
		},
		{
			"buffer":0,
			"byteLength":144,
			"byteOffset":6792,
			"target":34962
		},
		{
			"buffer":0,
			"byteLength":144,
			"byteOffset":6936,
			"target":34962
		},
		{
			"buffer":0,
			"byteLength":96,
			"byteOffset":7080,
			"target":34962
		},
		{
			"buffer":0,
			"byteLength":24,
			"byteOffset":7176,
			"target":34963
		}
	],
	"samplers":[
		{
			"magFilter":9729,
			"minFilter":9987
		}
	],
	"buffers":[
		{
			"byteLength":7200,
			"uri":"d3.bin"
		}
	]
}
