{
    "asset" : {
        "generator" : "Khronos glTF Blender I/O v1.5.17",
        "version" : "2.0"
    },
    "scene" : 0,
    "scenes" : [
        {
            "name" : "Scene",
            "nodes" : [
                0,
                1
            ]
        }
    ],
    "nodes" : [
        {
            "mesh" : 0,
            "name" : "die"
        },
        {
            "name" : "Light",
            "rotation" : [
                0.16907575726509094,
                0.7558803558349609,
                -0.27217137813568115,
                0.570947527885437
            ],
            "translation" : [
                4.076245307922363,
                5.903861999511719,
                -1.0054539442062378
            ]
        }
    ],
    "materials" : [
        {
            "doubleSided" : true,
            "name" : "Die White",
            "pbrMetallicRoughness" : {
                "metallicFactor" : 0,
                "roughnessFactor" : 0.25
            }
        },
        {
            "doubleSided" : true,
            "name" : "Black",
            "pbrMetallicRoughness" : {
                "baseColorFactor" : [
                    0,
                    0,
                    0,
                    1
                ],
                "metallicFactor" : 0,
                "roughnessFactor" : 0.5
            }
        }
    ],
    "meshes" : [
        {
            "name" : "Cube",
            "primitives" : [
                {
                    "attributes" : {
                        "POSITION" : 0,
                        "NORMAL" : 1,
                        "TEXCOORD_0" : 2
                    },
                    "indices" : 3,
                    "material" : 0
                },
                {
                    "attributes" : {
                        "POSITION" : 4,
                        "NORMAL" : 5,
                        "TEXCOORD_0" : 6
                    },
                    "indices" : 7,
                    "material" : 1
                }
            ]
        }
    ],
    "accessors" : [
        {
            "bufferView" : 0,
            "componentType" : 5126,
            "count" : 54032,
            "max" : [
                1.0000003576278687,
                1.000000238418579,
                1.000000238418579
            ],
            "min" : [
                -1.000000238418579,
                -1.0000003576278687,
                -1.000000238418579
            ],
            "type" : "VEC3"
        },
        {
            "bufferView" : 1,
            "componentType" : 5126,
            "count" : 54032,
            "type" : "VEC3"
        },
        {
            "bufferView" : 2,
            "componentType" : 5126,
            "count" : 54032,
            "type" : "VEC2"
        },
        {
            "bufferView" : 3,
            "componentType" : 5123,
            "count" : 81792,
            "type" : "SCALAR"
        },
        {
            "bufferView" : 4,
            "componentType" : 5126,
            "count" : 26880,
            "max" : [
                0.9866667985916138,
                0.9866667985916138,
                0.9866667985916138
            ],
            "min" : [
                -0.9866667985916138,
                -0.9866667985916138,
                -0.9866667985916138
            ],
            "type" : "VEC3"
        },
        {
            "bufferView" : 5,
            "componentType" : 5126,
            "count" : 26880,
            "type" : "VEC3"
        },
        {
            "bufferView" : 6,
            "componentType" : 5126,
            "count" : 26880,
            "type" : "VEC2"
        },
        {
            "bufferView" : 7,
            "componentType" : 5123,
            "count" : 40320,
            "type" : "SCALAR"
        }
    ],
    "bufferViews" : [
        {
            "buffer" : 0,
            "byteLength" : 648384,
            "byteOffset" : 0
        },
        {
            "buffer" : 0,
            "byteLength" : 648384,
            "byteOffset" : 648384
        },
        {
            "buffer" : 0,
            "byteLength" : 432256,
            "byteOffset" : 1296768
        },
        {
            "buffer" : 0,
            "byteLength" : 163584,
            "byteOffset" : 1729024
        },
        {
            "buffer" : 0,
            "byteLength" : 322560,
            "byteOffset" : 1892608
        },
        {
            "buffer" : 0,
            "byteLength" : 322560,
            "byteOffset" : 2215168
        },
        {
            "buffer" : 0,
            "byteLength" : 215040,
            "byteOffset" : 2537728
        },
        {
            "buffer" : 0,
            "byteLength" : 80640,
            "byteOffset" : 2752768
        }
    ],
    "buffers" : [
        {
            "byteLength" : 2833408,
            "uri" : "data:application/octet-stream;base64,"
        }
    ]
}
